<svg width="43" height="39" viewBox="0 0 43 39" fill="none" xmlns="http://www.w3.org/2000/svg">
<path d="M38.9127 11.8897C38.4343 11.8897 38.0085 11.8897 37.5826 11.8897C31.4735 11.8897 25.3629 11.8897 19.2538 11.8883C18.8863 11.8883 18.4064 12.0052 18.176 11.821C17.74 11.4731 17.231 10.982 17.1479 10.4835C17.037 9.81992 17.5431 9.33316 18.3 9.29223C18.5202 9.28054 18.7419 9.28493 18.9621 9.28493C26.0294 9.28493 33.0952 9.28346 40.1625 9.28493C41.8921 9.28493 42.3224 9.84915 41.86 11.5521C40.6729 15.9226 39.4771 20.2917 38.2739 24.6578C37.8524 26.1883 37.6293 26.3417 36.0426 26.3417C27.32 26.3417 18.596 26.3417 9.87348 26.3417C8.2401 26.3417 8.07968 26.2029 7.75884 24.5979C6.58776 18.7408 5.43419 12.8793 4.21936 7.03095C4.08811 6.39656 3.69434 5.75633 3.26267 5.25642C2.44597 4.31069 1.50532 3.47312 0.631754 2.57416C-0.135352 1.79068 -0.212646 0.919497 0.447999 0.356734C1.20635 -0.289347 1.86408 0.0249235 2.47368 0.64177C3.61268 1.79507 4.80271 2.90305 5.88628 4.10459C6.27713 4.53872 6.5513 5.16433 6.66943 5.7461C7.82301 11.3737 8.95471 17.0057 10.031 22.648C10.2002 23.5367 10.5589 23.7574 11.4077 23.7545C19.1735 23.7253 26.9394 23.7355 34.7067 23.7399C35.3076 23.7399 35.8195 23.7867 36.0295 22.9666C36.9278 19.4702 37.8962 15.9913 38.8354 12.5051C38.8718 12.3677 38.8718 12.2201 38.9112 11.8912L38.9127 11.8897Z" fill="white"/>
<path d="M15.7714 27.6866C18.6998 27.7056 21.0916 30.0882 21.0682 32.9635C21.0449 35.8372 18.6225 38.2505 15.7597 38.252C12.8299 38.2534 10.4556 35.808 10.5067 32.8392C10.5548 29.9698 12.9072 27.6676 15.7729 27.6866H15.7714ZM15.8137 35.5405C17.2546 35.5244 18.3804 34.3813 18.3863 32.9313C18.3921 31.5061 17.1189 30.2929 15.6649 30.3382C14.2737 30.3806 13.142 31.5982 13.1638 33.0292C13.1857 34.4573 14.3466 35.558 15.8152 35.5405H15.8137Z" fill="white"/>
<path d="M35.4756 33.0395C35.4581 35.8869 33.0999 38.2432 30.2575 38.2549C27.3058 38.2681 24.9534 35.8738 24.9767 32.8802C25.0001 29.9552 27.3728 27.6457 30.31 27.6896C33.2443 27.732 35.4945 30.0634 35.4756 33.0395ZM30.2196 30.3368C28.7729 30.3441 27.5581 31.5982 27.6004 33.0409C27.6397 34.3974 28.8983 35.5624 30.2969 35.5361C31.7261 35.5098 32.8622 34.3463 32.8593 32.9108C32.8563 31.5383 31.6167 30.3294 30.2211 30.3368H30.2196Z" fill="white"/>
</svg>
