<svg width="458" height="48" viewBox="0 0 458 48" fill="none" xmlns="http://www.w3.org/2000/svg">
<path fill-rule="evenodd" clip-rule="evenodd" d="M16.0791 4.45337H324.399V43.0947H16.0791C9.45169 43.0947 4.0791 37.7222 4.0791 31.0947V16.4534C4.0791 9.82596 9.45169 4.45337 16.0791 4.45337ZM16.0791 0.453369C7.24255 0.453369 0.0791016 7.61682 0.0791016 16.4534V31.0947C0.0791016 39.9313 7.24255 47.0947 16.0791 47.0947H442C450.837 47.0947 458 39.9313 458 31.0947V16.4534C458 7.61681 450.837 0.453369 442 0.453369H16.0791ZM340.581 21.4723C340.969 21.7578 341.188 22.1584 341.239 22.674H343.892C343.879 21.8942 343.67 21.2081 343.266 20.6158C342.861 20.0234 342.294 19.5611 341.565 19.2287C340.841 18.8963 339.993 18.7301 339.021 18.7301C338.067 18.7301 337.214 18.8963 336.464 19.2287C335.714 19.5611 335.124 20.0234 334.694 20.6158C334.268 21.2081 334.057 21.9006 334.061 22.6932C334.057 23.6605 334.374 24.4297 335.013 25.0007C335.653 25.5717 336.524 25.9915 337.628 26.2599L339.053 26.6179C339.531 26.733 339.933 26.8608 340.261 27.0014C340.594 27.142 340.845 27.3125 341.016 27.5128C341.19 27.7131 341.278 27.9602 341.278 28.2543C341.278 28.5696 341.182 28.8487 340.99 29.0916C340.798 29.3345 340.528 29.5241 340.178 29.6605C339.833 29.7969 339.426 29.8651 338.957 29.8651C338.48 29.8651 338.052 29.7926 337.673 29.6477C337.298 29.4986 336.997 29.2791 336.771 28.9893C336.55 28.6953 336.424 28.3288 336.394 27.8899H333.716C333.737 28.8317 333.965 29.6222 334.4 30.2614C334.839 30.8963 335.448 31.3757 336.228 31.6996C337.012 32.0234 337.933 32.1854 338.989 32.1854C340.055 32.1854 340.964 32.0256 341.719 31.706C342.477 31.3821 343.057 30.9283 343.457 30.3445C343.862 29.7564 344.067 29.0618 344.071 28.2607C344.067 27.7152 343.967 27.2315 343.771 26.8097C343.579 26.3878 343.308 26.0213 342.959 25.7102C342.609 25.3991 342.196 25.1371 341.719 24.924C341.241 24.7109 340.717 24.5405 340.146 24.4126L338.97 24.1314C338.685 24.0675 338.416 23.9908 338.165 23.9013C337.913 23.8075 337.692 23.6989 337.5 23.5753C337.308 23.4474 337.157 23.2962 337.046 23.1214C336.94 22.9467 336.891 22.7422 336.899 22.5078C336.899 22.2266 336.98 21.9751 337.142 21.7536C337.308 21.532 337.547 21.3594 337.858 21.2358C338.169 21.108 338.55 21.044 339.002 21.044C339.667 21.044 340.193 21.1868 340.581 21.4723ZM356.786 18.9091H354.019V27.174C354.019 27.6726 353.908 28.1158 353.686 28.5036C353.469 28.8913 353.16 29.196 352.759 29.4176C352.363 29.6392 351.896 29.75 351.36 29.75C350.827 29.75 350.36 29.6392 349.96 29.4176C349.559 29.196 349.248 28.8913 349.026 28.5036C348.809 28.1158 348.7 27.6726 348.7 27.174V18.9091H345.933V27.4105C345.933 28.3651 346.159 29.2003 346.61 29.9162C347.062 30.6321 347.695 31.1903 348.509 31.5909C349.323 31.9872 350.273 32.1854 351.36 32.1854C352.442 32.1854 353.39 31.9872 354.204 31.5909C355.018 31.1903 355.651 30.6321 356.102 29.9162C356.558 29.2003 356.786 28.3651 356.786 27.4105V18.9091ZM359.064 18.9091V32H364.657C365.637 32 366.461 31.8423 367.13 31.527C367.799 31.2116 368.304 30.7834 368.645 30.2422C368.99 29.6967 369.163 29.0767 369.163 28.3821C369.163 27.7386 369.027 27.1847 368.754 26.7202C368.481 26.2514 368.125 25.8871 367.686 25.6271C367.252 25.3672 366.785 25.2266 366.287 25.2053V25.0774C366.743 24.9751 367.147 24.8026 367.501 24.5597C367.859 24.3125 368.14 23.9972 368.345 23.6136C368.549 23.2259 368.652 22.7763 368.652 22.2649C368.652 21.6087 368.49 21.0291 368.166 20.5263C367.842 20.0192 367.358 19.6229 366.715 19.3374C366.071 19.0518 365.268 18.9091 364.305 18.9091H359.064ZM364.088 29.7372H361.831V26.2599H364.152C364.595 26.2599 364.976 26.3388 365.296 26.4964C365.62 26.6541 365.869 26.8714 366.044 27.1484C366.218 27.4254 366.306 27.745 366.306 28.1072C366.306 28.6016 366.129 28.9979 365.775 29.2962C365.422 29.5902 364.859 29.7372 364.088 29.7372ZM363.883 24.3871H361.831V21.1463H363.934C364.548 21.1463 365.021 21.2912 365.353 21.581C365.69 21.8707 365.858 22.2521 365.858 22.7251C365.858 23.0703 365.771 23.3665 365.596 23.6136C365.426 23.8608 365.191 24.0526 364.893 24.1889C364.599 24.321 364.262 24.3871 363.883 24.3871ZM377.407 21.4723C377.795 21.7578 378.014 22.1584 378.066 22.674H380.718C380.705 21.8942 380.497 21.2081 380.092 20.6158C379.687 20.0234 379.12 19.5611 378.392 19.2287C377.667 18.8963 376.819 18.7301 375.847 18.7301C374.893 18.7301 374.041 18.8963 373.291 19.2287C372.541 19.5611 371.95 20.0234 371.52 20.6158C371.094 21.2081 370.883 21.9006 370.887 22.6932C370.883 23.6605 371.2 24.4297 371.84 25.0007C372.479 25.5717 373.35 25.9915 374.454 26.2599L375.879 26.6179C376.357 26.733 376.759 26.8608 377.088 27.0014C377.42 27.142 377.671 27.3125 377.842 27.5128C378.017 27.7131 378.104 27.9602 378.104 28.2543C378.104 28.5696 378.008 28.8487 377.816 29.0916C377.624 29.3345 377.354 29.5241 377.004 29.6605C376.659 29.7969 376.252 29.8651 375.784 29.8651C375.306 29.8651 374.878 29.7926 374.499 29.6477C374.124 29.4986 373.823 29.2791 373.597 28.9893C373.376 28.6953 373.25 28.3288 373.22 27.8899H370.542C370.563 28.8317 370.791 29.6222 371.226 30.2614C371.665 30.8963 372.274 31.3757 373.054 31.6996C373.838 32.0234 374.759 32.1854 375.816 32.1854C376.881 32.1854 377.791 32.0256 378.545 31.706C379.303 31.3821 379.883 30.9283 380.284 30.3445C380.688 29.7564 380.893 29.0618 380.897 28.2607C380.893 27.7152 380.793 27.2315 380.597 26.8097C380.405 26.3878 380.134 26.0213 379.785 25.7102C379.436 25.3991 379.022 25.1371 378.545 24.924C378.068 24.7109 377.543 24.5405 376.972 24.4126L375.796 24.1314C375.511 24.0675 375.242 23.9908 374.991 23.9013C374.74 23.8075 374.518 23.6989 374.326 23.5753C374.134 23.4474 373.983 23.2962 373.872 23.1214C373.766 22.9467 373.717 22.7422 373.725 22.5078C373.725 22.2266 373.806 21.9751 373.968 21.7536C374.134 21.532 374.373 21.3594 374.684 21.2358C374.995 21.108 375.377 21.044 375.828 21.044C376.493 21.044 377.019 21.1868 377.407 21.4723ZM391.51 23.4922H394.309C394.22 22.7337 394.015 22.0604 393.696 21.4723C393.38 20.8842 392.971 20.3878 392.468 19.983C391.966 19.5739 391.388 19.2628 390.736 19.0497C390.088 18.8366 389.385 18.7301 388.627 18.7301C387.476 18.7301 386.441 18.9943 385.52 19.5227C384.6 20.0469 383.871 20.8097 383.334 21.8111C382.797 22.8125 382.529 24.027 382.529 25.4545C382.529 26.8778 382.793 28.0902 383.321 29.0916C383.854 30.093 384.578 30.858 385.495 31.3864C386.415 31.9148 387.459 32.179 388.627 32.179C389.466 32.179 390.218 32.0533 390.883 31.8018C391.552 31.5462 392.127 31.201 392.609 30.7663C393.095 30.3274 393.48 29.831 393.766 29.277C394.056 28.7188 394.237 28.1392 394.309 27.5384L391.51 27.5256C391.446 27.875 391.331 28.1861 391.164 28.4588C391.002 28.7315 390.798 28.9638 390.551 29.1555C390.304 29.343 390.02 29.4858 389.701 29.5838C389.385 29.6818 389.042 29.7308 388.672 29.7308C388.011 29.7308 387.429 29.5689 386.926 29.245C386.424 28.9212 386.032 28.4418 385.75 27.8068C385.473 27.1719 385.335 26.3878 385.335 25.4545C385.335 24.5469 385.473 23.7756 385.75 23.1406C386.027 22.5014 386.417 22.0156 386.92 21.6832C387.423 21.3466 388.013 21.1783 388.691 21.1783C389.066 21.1783 389.413 21.2315 389.733 21.3381C390.056 21.4446 390.342 21.598 390.589 21.7983C390.836 21.9986 391.039 22.2415 391.196 22.527C391.354 22.8082 391.458 23.13 391.51 23.4922ZM396.294 18.9091V32H399.062V27.3594H401.082L403.562 32H406.617L403.84 26.9143C403.88 26.897 403.919 26.8791 403.958 26.8608C404.67 26.5284 405.213 26.0511 405.588 25.429C405.963 24.8026 406.151 24.0547 406.151 23.1854C406.151 22.3203 405.965 21.5682 405.594 20.929C405.228 20.2855 404.693 19.7891 403.99 19.4396C403.291 19.0859 402.447 18.9091 401.459 18.9091H396.294ZM399.062 25.1349H400.941C401.469 25.1349 401.908 25.0625 402.258 24.9176C402.607 24.7727 402.867 24.5554 403.038 24.2656C403.212 23.9759 403.3 23.6158 403.3 23.1854C403.3 22.7507 403.212 22.3842 403.038 22.0859C402.867 21.7876 402.605 21.5618 402.251 21.4084C401.902 21.2507 401.461 21.1719 400.928 21.1719H399.062V25.1349ZM410.874 32V18.9091H408.107V32H410.874ZM413.151 18.9091V32H418.745C419.725 32 420.549 31.8423 421.218 31.527C421.887 31.2116 422.392 30.7834 422.733 30.2422C423.078 29.6967 423.251 29.0767 423.251 28.3821C423.251 27.7386 423.115 27.1847 422.842 26.7202C422.569 26.2514 422.213 25.8871 421.774 25.6271C421.34 25.3672 420.873 25.2266 420.374 25.2053V25.0774C420.83 24.9751 421.235 24.8026 421.589 24.5597C421.947 24.3125 422.228 23.9972 422.433 23.6136C422.637 23.2259 422.74 22.7763 422.74 22.2649C422.74 21.6087 422.578 21.0291 422.254 20.5263C421.93 20.0192 421.446 19.6229 420.803 19.3374C420.159 19.0518 419.356 18.9091 418.393 18.9091H413.151ZM418.176 29.7372H415.919V26.2599H418.24C418.683 26.2599 419.064 26.3388 419.384 26.4964C419.708 26.6541 419.957 26.8714 420.132 27.1484C420.306 27.4254 420.394 27.745 420.394 28.1072C420.394 28.6016 420.217 28.9979 419.863 29.2962C419.509 29.5902 418.947 29.7372 418.176 29.7372ZM417.971 24.3871H415.919V21.1463H418.022C418.636 21.1463 419.109 21.2912 419.441 21.581C419.778 21.8707 419.946 22.2521 419.946 22.7251C419.946 23.0703 419.859 23.3665 419.684 23.6136C419.514 23.8608 419.279 24.0526 418.981 24.1889C418.687 24.321 418.35 24.3871 417.971 24.3871ZM425.052 18.9091V32H433.898V29.718H427.82V26.5923H433.419V24.3104H427.82V21.1911H433.873V18.9091H425.052Z" fill="white"/>
</svg>
