<svg width="1513" height="2967" viewBox="0 0 1513 2967" fill="none" xmlns="http://www.w3.org/2000/svg">
<circle cx="335.6" cy="681.599" r="334.986" transform="rotate(30 335.6 681.599)" fill="url(#paint0_linear_327_33)"/>
<circle cx="1186.19" cy="344.188" r="123.122" transform="rotate(30 1186.19 344.188)" fill="url(#paint1_linear_327_33)"/>
<circle cx="1185.8" cy="1553.8" r="193.85" transform="rotate(30 1185.8 1553.8)" fill="url(#paint2_linear_327_33)"/>
<circle cx="403.803" cy="2525.8" r="193.85" transform="rotate(30 403.803 2525.8)" fill="url(#paint3_linear_327_33)"/>
<circle cx="944.182" cy="1719.18" r="38.2002" transform="rotate(30 944.182 1719.18)" fill="url(#paint4_linear_327_33)"/>
<circle cx="652.346" cy="2728.35" r="45.641" transform="rotate(30 652.346 2728.35)" fill="url(#paint5_linear_327_33)"/>
<circle cx="929.507" cy="599.508" r="34.7783" transform="rotate(30 929.507 599.508)" fill="url(#paint6_linear_327_33)"/>
<circle cx="539.816" cy="103.816" r="45.9848" transform="rotate(30 539.816 103.816)" fill="url(#paint7_linear_327_33)"/>
<circle cx="1338.62" cy="968.097" r="40.9018" transform="rotate(30 1338.62 968.097)" fill="url(#paint8_linear_327_33)"/>
<defs>
<linearGradient id="paint0_linear_327_33" x1="670.586" y1="619.044" x2="120.284" y2="558.756" gradientUnits="userSpaceOnUse">
<stop stop-color="#46B18D"/>
<stop offset="1" stop-color="#46B18D" stop-opacity="0"/>
</linearGradient>
<linearGradient id="paint1_linear_327_33" x1="1309.31" y1="321.197" x2="1107.05" y2="299.038" gradientUnits="userSpaceOnUse">
<stop stop-color="#46B18D"/>
<stop offset="1" stop-color="#46B18D" stop-opacity="0"/>
</linearGradient>
<linearGradient id="paint2_linear_327_33" x1="1379.65" y1="1517.6" x2="1061.2" y2="1482.72" gradientUnits="userSpaceOnUse">
<stop stop-color="#46B18D"/>
<stop offset="1" stop-color="#46B18D" stop-opacity="0"/>
</linearGradient>
<linearGradient id="paint3_linear_327_33" x1="597.653" y1="2489.6" x2="279.205" y2="2454.72" gradientUnits="userSpaceOnUse">
<stop stop-color="#46B18D"/>
<stop offset="1" stop-color="#46B18D" stop-opacity="0"/>
</linearGradient>
<linearGradient id="paint4_linear_327_33" x1="982.383" y1="1712.05" x2="919.629" y2="1705.17" gradientUnits="userSpaceOnUse">
<stop stop-color="#46B18D"/>
<stop offset="1" stop-color="#46B18D" stop-opacity="0"/>
</linearGradient>
<linearGradient id="paint5_linear_327_33" x1="697.987" y1="2719.82" x2="623.01" y2="2711.61" gradientUnits="userSpaceOnUse">
<stop stop-color="#46B18D"/>
<stop offset="1" stop-color="#46B18D" stop-opacity="0"/>
</linearGradient>
<linearGradient id="paint6_linear_327_33" x1="964.285" y1="593.014" x2="907.153" y2="586.755" gradientUnits="userSpaceOnUse">
<stop stop-color="#46B18D"/>
<stop offset="1" stop-color="#46B18D" stop-opacity="0"/>
</linearGradient>
<linearGradient id="paint7_linear_327_33" x1="585.801" y1="95.2292" x2="510.259" y2="86.9532" gradientUnits="userSpaceOnUse">
<stop stop-color="#46B18D"/>
<stop offset="1" stop-color="#46B18D" stop-opacity="0"/>
</linearGradient>
<linearGradient id="paint8_linear_327_33" x1="1379.52" y1="960.459" x2="1312.33" y2="953.098" gradientUnits="userSpaceOnUse">
<stop stop-color="#46B18D"/>
<stop offset="1" stop-color="#46B18D" stop-opacity="0"/>
</linearGradient>
</defs>
</svg>
