<svg width="54" height="46" viewBox="0 0 54 46" fill="none" xmlns="http://www.w3.org/2000/svg">
<path d="M49.9911 14.1235C49.3766 14.1235 48.8295 14.1235 48.2824 14.1235C40.434 14.1235 32.5837 14.1235 24.7353 14.1217C24.2632 14.1217 23.6468 14.2606 23.3507 14.0419C22.7905 13.6286 22.1367 13.0452 22.0299 12.4531C21.8875 11.6648 22.5376 11.0866 23.51 11.038C23.7929 11.0241 24.0777 11.0293 24.3606 11.0293C33.44 11.0293 42.5174 11.0276 51.5968 11.0293C53.8189 11.0293 54.3716 11.6995 53.7776 13.7224C52.2525 18.914 50.7162 24.104 49.1705 29.2904C48.629 31.1084 48.3424 31.2907 46.3039 31.2907C35.0981 31.2907 23.8903 31.2907 12.6845 31.2907C10.5861 31.2907 10.38 31.1257 9.96779 29.2192C8.4633 22.2617 6.9813 15.299 5.42061 8.35188C5.25199 7.59831 4.74613 6.83779 4.19155 6.24397C3.14234 5.12055 1.93389 4.12563 0.811615 3.05778C-0.173886 2.1271 -0.273186 1.09225 0.575544 0.423755C1.5498 -0.343707 2.39479 0.029606 3.17794 0.762341C4.64121 2.13231 6.17004 3.44846 7.56211 4.87573C8.06423 5.39142 8.41646 6.13458 8.56822 6.82564C10.0502 13.5105 11.5041 20.2007 12.8868 26.9029C13.1042 27.9586 13.5651 28.2208 14.6555 28.2173C24.6323 28.1826 34.6091 28.1948 44.5877 28.2C45.3597 28.2 46.0173 28.2555 46.2871 27.2815C47.4412 23.1281 48.6853 18.9956 49.8918 14.8545C49.9387 14.6913 49.9387 14.5159 49.9893 14.1252L49.9911 14.1235Z" fill="white"/>
<path d="M20.2617 32.8883C24.0239 32.9109 27.0965 35.7411 27.0666 39.1565C27.0366 42.5701 23.9246 45.4368 20.2467 45.4386C16.4827 45.4403 13.4325 42.5354 13.4981 39.0089C13.5599 35.6005 16.582 32.8657 20.2636 32.8883H20.2617ZM20.3161 42.2177C22.1671 42.1986 23.6135 40.8408 23.621 39.1183C23.6285 37.4254 21.9929 35.9842 20.1249 36.038C18.3376 36.0884 16.8837 37.5348 16.9118 39.2346C16.9399 40.931 18.4312 42.2385 20.3179 42.2177H20.3161Z" fill="white"/>
<path d="M45.575 39.2464C45.5525 42.6288 42.523 45.4277 38.8714 45.4416C35.0792 45.4572 32.0572 42.6131 32.0871 39.0571C32.1171 35.5827 35.1654 32.8393 38.9388 32.8914C42.7084 32.9417 45.5994 35.7112 45.575 39.2464ZM38.8226 36.0359C36.9641 36.0445 35.4034 37.5343 35.4577 39.2481C35.5083 40.8594 37.1252 42.2433 38.9219 42.212C40.7581 42.1808 42.2176 40.7986 42.2138 39.0936C42.2101 37.4631 40.6175 36.0272 38.8245 36.0359H38.8226Z" fill="white"/>
</svg>
