<svg width="177" height="16" viewBox="0 0 177 16" fill="none" xmlns="http://www.w3.org/2000/svg">
<rect x="0.745117" y="0.692383" width="41.2869" height="14.7682" rx="5" fill="white"/>
<path d="M13.4366 5.40617C13.1352 5.15968 12.742 5.03613 12.2568 5.03613H10.3786C10.2299 5.03613 10.1477 5.12463 10.1321 5.30141L9.36909 10.9996C9.36116 11.0556 9.37293 11.1068 9.40429 11.1533C9.43547 11.2 9.47469 11.2232 9.52166 11.2232H10.4138C10.5703 11.2232 10.6563 11.1349 10.6721 10.9578L10.8833 9.42161C10.8911 9.34716 10.9186 9.28663 10.9656 9.24001C11.0125 9.19348 11.0712 9.163 11.1416 9.14908C11.2121 9.13525 11.2785 9.12829 11.3412 9.12829C11.4037 9.12829 11.478 9.13299 11.5643 9.14225C11.6503 9.15156 11.7051 9.15608 11.7286 9.15608C12.4016 9.15608 12.9298 8.93047 13.3134 8.47876C13.6967 8.02723 13.8886 7.4011 13.8886 6.60024C13.8886 6.05091 13.7378 5.65287 13.4366 5.406V5.40617ZM12.4682 7.11717C12.4289 7.44311 12.3273 7.65716 12.163 7.75961C11.9986 7.8622 11.7638 7.91317 11.4587 7.91317L11.0713 7.92717L11.2709 6.43273C11.2864 6.3304 11.3373 6.27917 11.4234 6.27917H11.6465C11.9594 6.27917 12.1865 6.33283 12.3274 6.43973C12.4682 6.54688 12.5151 6.7728 12.4682 7.11717Z" fill="#003087"/>
<path d="M33.2575 5.03613H32.3889C32.3026 5.03613 32.2518 5.08736 32.2363 5.18977L31.4732 10.9999L31.4614 11.0278C31.4614 11.0746 31.4771 11.1186 31.5085 11.1605C31.5396 11.2023 31.5789 11.2233 31.6258 11.2233H32.4007C32.5492 11.2233 32.6314 11.135 32.6472 10.958L33.4102 5.24565V5.23178C33.4102 5.10145 33.3591 5.03626 33.2575 5.03626V5.03613Z" fill="#009CDE"/>
<path d="M22.7632 7.28487C22.7632 7.23843 22.7475 7.19412 22.7164 7.15228C22.685 7.1104 22.6497 7.08936 22.6107 7.08936H21.7068C21.6206 7.08936 21.5502 7.13614 21.4955 7.22899L20.2512 9.40788L19.7347 7.31288C19.6954 7.16398 19.6094 7.08936 19.4764 7.08936H18.5959C18.5567 7.08936 18.5214 7.11036 18.4903 7.15228C18.4589 7.19412 18.4434 7.23847 18.4434 7.28487C18.4434 7.30366 18.5197 7.5782 18.6722 8.10892C18.8248 8.63972 18.9892 9.21236 19.1653 9.82692C19.3414 10.4414 19.4332 10.7674 19.4411 10.8044C18.7994 11.8473 18.4786 12.4061 18.4786 12.4804C18.4786 12.6016 18.5294 12.662 18.6312 12.662H19.5351C19.6212 12.662 19.6916 12.6156 19.7464 12.5224L22.7399 7.38255C22.7554 7.36406 22.7632 7.33162 22.7632 7.28483V7.28487Z" fill="#003087"/>
<path d="M31.1806 7.0895H30.2884C30.1788 7.0895 30.1125 7.24314 30.089 7.55042C29.8853 7.17817 29.5137 6.9917 28.9737 6.9917C28.4102 6.9917 27.9308 7.24314 27.5357 7.74594C27.1404 8.24879 26.9429 8.84012 26.9429 9.51975C26.9429 10.0692 27.0778 10.5068 27.3478 10.8325C27.6178 11.1586 27.9797 11.3214 28.4338 11.3214C28.6606 11.3214 28.8915 11.2654 29.1263 11.1538C29.3611 11.0421 29.5448 10.8932 29.6781 10.7069C29.6781 10.7162 29.6701 10.758 29.6546 10.8325C29.6388 10.9071 29.6311 10.9631 29.6311 11.0001C29.6311 11.1492 29.6819 11.2235 29.7838 11.2235H30.5938C30.7423 11.2235 30.8285 11.1352 30.8519 10.9581L31.3332 7.3129C31.341 7.25702 31.3293 7.20587 31.298 7.15926C31.2666 7.11285 31.2276 7.0895 31.1806 7.0895ZM29.6487 9.84094C29.4491 10.0737 29.2085 10.1901 28.9268 10.1901C28.6997 10.1901 28.516 10.1157 28.375 9.96667C28.2341 9.81798 28.1637 9.61311 28.1637 9.3521C28.1637 9.00785 28.2615 8.71671 28.4572 8.47927C28.6526 8.24183 28.8954 8.12311 29.185 8.12311C29.404 8.12311 29.5859 8.19995 29.7308 8.3535C29.8755 8.50714 29.9481 8.71906 29.9481 8.98907C29.9481 9.32423 29.8482 9.60828 29.6487 9.84094Z" fill="#009CDE"/>
<path d="M17.8447 7.0895H16.9526C16.8429 7.0895 16.7765 7.24314 16.753 7.55042C16.5417 7.17817 16.1699 6.9917 15.6378 6.9917C15.0743 6.9917 14.5949 7.24314 14.1997 7.74594C13.8045 8.24879 13.6069 8.84012 13.6069 9.51975C13.6069 10.0692 13.742 10.5068 14.012 10.8325C14.282 11.1586 14.6438 11.3214 15.0978 11.3214C15.3168 11.3214 15.5439 11.2654 15.7786 11.1538C16.0134 11.0421 16.2012 10.8932 16.3421 10.7069C16.3107 10.8185 16.2951 10.9163 16.2951 11.0001C16.2951 11.1492 16.346 11.2235 16.4477 11.2235H17.2577C17.4063 11.2235 17.4925 11.1352 17.516 10.9581L17.9973 7.3129C18.005 7.25702 17.9932 7.20587 17.9621 7.15926C17.9307 7.11285 17.8917 7.0895 17.8447 7.0895ZM16.3128 9.84786C16.1132 10.0763 15.8685 10.1901 15.5791 10.1901C15.352 10.1901 15.1701 10.1157 15.0332 9.96667C14.8962 9.81798 14.8278 9.61311 14.8278 9.3521C14.8278 9.00785 14.9256 8.71671 15.1213 8.47927C15.3168 8.24183 15.5594 8.12311 15.8491 8.12311C16.0681 8.12311 16.2501 8.19995 16.395 8.35355C16.5397 8.50719 16.6122 8.7191 16.6122 8.98911C16.6122 9.33358 16.5124 9.61998 16.3128 9.84786Z" fill="#003087"/>
<path d="M26.7726 5.40617C26.4713 5.15968 26.0781 5.03613 25.5929 5.03613H23.7263C23.5697 5.03613 23.4836 5.12463 23.4681 5.30141L22.705 10.9996C22.6971 11.0556 22.7088 11.1068 22.7402 11.1534C22.7713 11.2 22.8106 11.2232 22.8576 11.2232H23.8201C23.914 11.2232 23.9766 11.1627 24.008 11.0416L24.2193 9.42161C24.2271 9.34716 24.2545 9.28663 24.3015 9.24001C24.3485 9.19348 24.4071 9.16304 24.4776 9.14908C24.548 9.13525 24.6144 9.12829 24.6772 9.12829C24.7397 9.12829 24.814 9.13299 24.9001 9.14225C24.9862 9.15156 25.0412 9.15608 25.0645 9.15608C25.7376 9.15608 26.2657 8.93047 26.6493 8.47876C27.0328 8.02723 27.2245 7.4011 27.2245 6.60024C27.2245 6.05095 27.0738 5.65291 26.7726 5.40604V5.40617ZM25.5693 7.70373C25.3972 7.84337 25.1389 7.91317 24.7946 7.91317L24.4189 7.92717L24.6185 6.43273C24.634 6.3304 24.6848 6.27917 24.7711 6.27917H24.9823C25.1545 6.27917 25.2914 6.28848 25.3933 6.30705C25.4949 6.32583 25.5929 6.38385 25.6868 6.48161C25.7807 6.57941 25.8276 6.72144 25.8276 6.90765C25.8276 7.29869 25.7414 7.56401 25.5693 7.70373Z" fill="#009CDE"/>
<rect x="45.5361" y="0.803711" width="41.2869" height="14.7682" rx="5" fill="white"/>
<path d="M67.5477 8.1884C67.5477 10.9222 65.685 13.138 63.3873 13.138C61.0895 13.138 59.2271 10.9221 59.2271 8.1884C59.2271 5.45485 61.0896 3.23877 63.3873 3.23877C65.6849 3.23877 67.5477 5.45494 67.5477 8.1884Z" fill="#D9222A"/>
<path d="M68.9725 3.23828C67.8976 3.23828 66.918 3.72348 66.1797 4.51956C66.0293 4.68195 65.8889 4.85699 65.7596 5.04337H66.6002C66.7153 5.20983 66.8212 5.38496 66.9173 5.56764H65.4425C65.3538 5.73643 65.2738 5.91147 65.2028 6.09178H67.1569C67.2239 6.26233 67.2828 6.43729 67.333 6.61581H65.0267C64.9782 6.78773 64.9379 6.96272 64.9058 7.13997H67.4538C67.5161 7.48438 67.5475 7.8357 67.5475 8.18802C67.5475 8.73769 67.472 9.26655 67.333 9.76032H65.0266C65.0768 9.93898 65.1356 10.114 65.2027 10.2845H67.1568C67.0858 10.4649 67.0057 10.6399 66.917 10.8088H65.4424C65.5387 10.9916 65.6447 11.1667 65.7596 11.3326H66.5999C66.4708 11.5193 66.3304 11.6945 66.1797 11.8568C66.9181 12.6528 67.8975 13.1378 68.9725 13.1378C71.2702 13.1378 73.1329 10.9218 73.1329 8.18816C73.1329 5.4547 71.2702 3.23853 68.9725 3.23853" fill="#EE9F2D"/>
<path d="M72.5782 10.9471C72.5782 10.8588 72.6382 10.7871 72.7125 10.7871C72.7868 10.7871 72.8468 10.8588 72.8468 10.9471C72.8468 11.0353 72.7868 11.107 72.7125 11.107C72.6383 11.107 72.5781 11.0354 72.5782 10.9471ZM72.7125 11.0686C72.7689 11.0686 72.8146 11.0142 72.8147 10.9471C72.8147 10.88 72.769 10.8256 72.7126 10.8256H72.7125C72.6562 10.8255 72.6105 10.8798 72.6104 10.9468V10.9471C72.6104 11.0142 72.656 11.0686 72.7124 11.0687C72.7124 11.0686 72.7124 11.0686 72.7125 11.0686ZM72.6943 11.0173H72.6668V10.8769H72.7166C72.727 10.8769 72.7377 10.8769 72.7469 10.8839C72.7564 10.8916 72.7618 10.9051 72.7618 10.9191C72.7618 10.9348 72.754 10.9496 72.7414 10.9553L72.7631 11.0173H72.7326L72.7145 10.9618H72.6944L72.6943 11.0173ZM72.6943 10.9377H72.7096C72.7153 10.9377 72.7213 10.9382 72.7264 10.9349C72.7309 10.9315 72.7333 10.925 72.7333 10.9188C72.7333 10.9134 72.7305 10.9072 72.7266 10.9046C72.7218 10.901 72.7142 10.9018 72.709 10.9018H72.6943V10.9377ZM62.4155 8.72995C62.3681 8.72342 62.3473 8.72165 62.3147 8.72165C62.0587 8.72165 61.9291 8.82613 61.9291 9.03236C61.9291 9.15951 61.9924 9.24044 62.091 9.24044C62.275 9.24044 62.4076 9.03198 62.4155 8.72995ZM62.744 9.6398H62.3697L62.3783 9.42814C62.2642 9.59544 62.1119 9.67493 61.905 9.67493C61.6602 9.67493 61.4923 9.44744 61.4923 9.11713C61.4923 8.62013 61.7843 8.33015 62.2854 8.33015C62.3365 8.33015 62.4022 8.33567 62.4694 8.34584C62.4834 8.27853 62.4871 8.24972 62.4871 8.21348C62.4871 8.07815 62.4084 8.02769 62.1974 8.02769C61.9764 8.02471 61.7942 8.09031 61.7194 8.11962C61.7241 8.0857 61.7819 7.66028 61.7819 7.66028C62.007 7.58181 62.1555 7.55227 62.3225 7.55227C62.7104 7.55227 62.9158 7.75941 62.9154 8.15097C62.9161 8.25589 62.9016 8.38536 62.8788 8.55552C62.8396 8.85142 62.7555 9.48528 62.744 9.6398ZM61.3033 9.6398H60.8517L61.1104 7.70967L60.5327 9.6398H60.2249L60.1869 7.7207L59.915 9.6398H59.4922L59.8454 7.12903H60.4948L60.5342 8.5344L60.9303 7.12903H61.6526L61.3033 9.6398ZM69.5306 8.72995C69.4834 8.72342 69.4624 8.72165 69.4299 8.72165C69.1741 8.72165 69.0444 8.82613 69.0444 9.03236C69.0444 9.15951 69.1076 9.24044 69.2063 9.24044C69.3903 9.24044 69.523 9.03198 69.5306 8.72995ZM69.8593 9.6398H69.4851L69.4936 9.42814C69.3794 9.59544 69.227 9.67493 69.0203 9.67493C68.7754 9.67493 68.6078 9.44744 68.6078 9.11713C68.6078 8.62013 68.8995 8.33015 69.4007 8.33015C69.4518 8.33015 69.5174 8.33567 69.5846 8.34584C69.5986 8.27853 69.6022 8.24972 69.6022 8.21348C69.6022 8.07815 69.5236 8.02769 69.3126 8.02769C69.0917 8.02471 68.9096 8.09031 68.8345 8.11962C68.8392 8.0857 68.8973 7.66028 68.8973 7.66028C69.1224 7.58181 69.2707 7.55227 69.4376 7.55227C69.8256 7.55227 70.031 7.75941 70.0306 8.15097C70.0314 8.25589 70.0168 8.38536 69.994 8.55552C69.955 8.85142 69.8707 9.48528 69.8593 9.6398ZM64.7514 9.60878C64.6278 9.65511 64.5314 9.67493 64.4269 9.67493C64.196 9.67493 64.07 9.51707 64.07 9.22638C64.0667 9.13621 64.1032 8.89882 64.1319 8.68214C64.158 8.49141 64.3277 7.2888 64.3277 7.2888H64.7767L64.7243 7.59788H64.9954L64.9342 8.0886H64.662C64.6099 8.47693 64.5356 8.96064 64.5348 9.02475C64.5348 9.13001 64.582 9.17595 64.6894 9.17595C64.7408 9.17595 64.7807 9.16971 64.8111 9.15664L64.7514 9.60878ZM66.1279 9.59224C65.9737 9.6483 65.8248 9.67543 65.6672 9.67496C65.1646 9.67438 64.9026 9.3621 64.9026 8.76412C64.9026 8.06613 65.2359 7.5523 65.6883 7.5523C66.0584 7.5523 66.2948 7.83999 66.2948 8.29119C66.2948 8.44089 66.2786 8.58704 66.2395 8.79338H65.3455C65.3153 9.08958 65.4746 9.21298 65.7357 9.21298C65.8964 9.21298 66.0414 9.17355 66.2025 9.0844L66.1279 9.59224ZM65.8756 8.38172C65.878 8.33917 65.9232 8.01726 65.6667 8.01726C65.5236 8.01726 65.4214 8.14697 65.3797 8.38172H65.8756ZM63.0151 8.24337C63.0151 8.50166 63.1203 8.67974 63.3591 8.81351C63.542 8.91578 63.5703 8.94611 63.5703 9.03879C63.5703 9.1661 63.4896 9.22354 63.3109 9.22354C63.1762 9.22354 63.0508 9.19853 62.9063 9.14302C62.9063 9.14302 62.8469 9.59304 62.8442 9.61457C62.9468 9.64121 63.0384 9.66589 63.3142 9.67496C63.7907 9.67496 64.0108 9.45908 64.0108 8.99249C64.0108 8.71192 63.9187 8.54727 63.6924 8.42355C63.5031 8.32014 63.4813 8.29703 63.4813 8.20168C63.4813 8.09127 63.5564 8.03497 63.7024 8.03497C63.791 8.03497 63.9121 8.04622 64.0269 8.06566L64.0912 7.59206C63.9742 7.57 63.7969 7.5523 63.6937 7.5523C63.1884 7.5523 63.0135 7.86629 63.0151 8.24337ZM68.3246 7.60596C68.4501 7.60596 68.567 7.64512 68.7282 7.74163L68.8021 7.1967C68.7359 7.16582 68.503 6.98438 68.3057 6.98438C68.0034 6.98438 67.7479 7.16278 67.5682 7.45728C67.3061 7.35398 67.1984 7.56275 67.0663 7.77072L66.9489 7.80323C66.9578 7.73476 66.9659 7.66673 66.9631 7.59791H66.5484C66.4917 8.22983 66.3913 8.86992 66.3126 9.50262L66.2922 9.63983H66.744C66.8194 9.05682 66.8608 8.68352 66.8859 8.43091L67.056 8.31829C67.0814 8.20579 67.161 8.16779 67.3206 8.17237C67.2992 8.31046 67.2884 8.4506 67.2886 8.59106C67.2886 9.25906 67.5915 9.67496 68.0777 9.67496C68.203 9.67496 68.3105 9.65533 68.4769 9.6017L68.5564 9.02925C68.4067 9.11694 68.2838 9.15819 68.1725 9.15819C67.91 9.15819 67.7511 8.92761 67.7511 8.54647C67.7511 7.9936 67.9874 7.60596 68.3246 7.60596Z" fill="black"/>
<path d="M61.4337 9.49042H60.982L61.2409 7.56054L60.6632 9.49042H60.3554L60.3173 7.57156L60.0454 9.49042H59.6226L59.9757 6.97998H60.6251L60.6434 8.53414L61.0815 6.97998H61.783L61.4337 9.49042Z" fill="white"/>
<path d="M72.1481 7.12891L72.048 7.85434C71.9245 7.66098 71.7918 7.52104 71.6166 7.52104C71.3887 7.52104 71.1813 7.72658 71.0455 8.02911C70.8564 7.98245 70.6608 7.90328 70.6608 7.90328L70.6608 7.90513C70.676 7.73602 70.6821 7.63283 70.6807 7.59778H70.2659C70.2094 8.22971 70.109 8.8698 70.0305 9.5025L70.0098 9.63971H70.4615C70.5225 9.16826 70.5693 8.77682 70.6037 8.46638C70.758 8.30047 70.8352 8.1557 70.9912 8.16535C70.9222 8.36405 70.8817 8.59287 70.8817 8.82761C70.8817 9.3381 71.0988 9.67484 71.4271 9.67484C71.5926 9.67484 71.7196 9.60695 71.8435 9.44955L71.8224 9.63938H72.2496L72.5936 7.12891H72.1481ZM71.5833 9.16782C71.4295 9.16782 71.3519 9.03246 71.3519 8.76532C71.3519 8.36403 71.4972 8.0794 71.7021 8.0794C71.8573 8.0794 71.9413 8.22014 71.9413 8.47945C71.9414 8.88427 71.7937 9.16782 71.5833 9.16782Z" fill="black"/>
<path d="M62.5451 8.58127C62.4978 8.57477 62.4768 8.573 62.4444 8.573C62.1883 8.573 62.0588 8.67745 62.0588 8.88368C62.0588 9.01064 62.1221 9.09179 62.2206 9.09179C62.4047 9.09176 62.5373 8.88335 62.5451 8.58127ZM62.8737 9.49079H62.4995L62.508 9.27949C62.3939 9.44643 62.2415 9.52628 62.0347 9.52628C61.7898 9.52628 61.6221 9.29879 61.6221 8.96848C61.6221 8.47125 61.9139 8.18144 62.4151 8.18144C62.4663 8.18144 62.5319 8.18696 62.5991 8.19719C62.6131 8.12985 62.6167 8.10104 62.6167 8.06461C62.6167 7.92927 62.5381 7.87903 62.3271 7.87903C62.1061 7.87605 61.9239 7.94168 61.849 7.97064C61.8537 7.93683 61.9116 7.51185 61.9116 7.51185C62.1366 7.43304 62.2852 7.40348 62.4521 7.40348C62.84 7.40348 63.0455 7.61079 63.0451 8.00199C63.0458 8.10732 63.0311 8.2367 63.0084 8.40664C62.9693 8.70238 62.8851 9.3366 62.8737 9.49079ZM68.9316 7.04791L68.8576 7.59297C68.6965 7.49657 68.5795 7.45728 68.4542 7.45728C68.1169 7.45728 67.8806 7.84492 67.8806 8.39777C67.8806 8.77887 68.0395 9.0094 68.302 9.0094C68.4132 9.0094 68.536 8.96826 68.6856 8.88043L68.6064 9.4526C68.4399 9.50662 68.3325 9.52628 68.2071 9.52628C67.721 9.52628 67.418 9.11035 67.418 8.44235C67.418 7.5448 67.8365 6.91748 68.4352 6.91748C68.6323 6.91751 68.8654 7.017 68.9316 7.04791ZM69.6603 8.58127C69.613 8.57477 69.5922 8.573 69.5596 8.573C69.3037 8.573 69.1741 8.67745 69.1741 8.88368C69.1741 9.01064 69.2373 9.09179 69.3359 9.09179C69.5199 9.09176 69.6526 8.88335 69.6603 8.58127ZM69.9889 9.49079H69.6146L69.6232 9.27949C69.5091 9.44643 69.3567 9.52628 69.1499 9.52628C68.9051 9.52628 68.7373 9.29879 68.7373 8.96848C68.7373 8.47125 69.0292 8.18144 69.5302 8.18144C69.5815 8.18144 69.6471 8.18696 69.7143 8.19719C69.7282 8.12985 69.732 8.10104 69.732 8.06461C69.732 7.92927 69.6533 7.87903 69.4423 7.87903C69.2214 7.87605 69.0392 7.94168 68.9642 7.97064C68.969 7.93683 69.0269 7.51185 69.0269 7.51185C69.2519 7.43304 69.4004 7.40348 69.5673 7.40348C69.9553 7.40348 70.1607 7.61079 70.1602 8.00199C70.161 8.10732 70.1464 8.2367 70.1236 8.40664C70.0846 8.70238 70.0002 9.3366 69.9889 9.49079ZM64.881 9.45985C64.7573 9.50618 64.661 9.52628 64.5566 9.52628C64.3257 9.52628 64.1997 9.36839 64.1997 9.07775C64.1965 8.98728 64.233 8.75014 64.2617 8.53349C64.2876 8.34251 64.4574 7.14006 64.4574 7.14006H64.9063L64.8539 7.44923H65.0843L65.023 7.93972H64.7918C64.7397 8.32828 64.6652 8.8116 64.6644 8.87585C64.6644 8.98146 64.7118 9.02704 64.8191 9.02704C64.8705 9.02704 64.9103 9.02106 64.9408 9.00796L64.881 9.45985ZM66.2576 9.44356C66.1034 9.49962 65.9544 9.52664 65.7968 9.52628C65.2942 9.5257 65.0323 9.21342 65.0323 8.61541C65.0323 7.9172 65.3656 7.40351 65.818 7.40351C66.1881 7.40351 66.4245 7.69108 66.4245 8.14251C66.4245 8.29232 66.4083 8.43847 66.3693 8.6447H65.4753C65.445 8.94087 65.6043 9.06441 65.8655 9.06441C66.0261 9.06441 66.1711 9.02487 66.3322 8.93547L66.2576 9.44356ZM66.0051 8.2327C66.0078 8.19029 66.0528 7.86825 65.7962 7.86825C65.6533 7.86825 65.551 7.99832 65.5094 8.2327H66.0051ZM63.1447 8.09472C63.1447 8.35296 63.2499 8.53084 63.4886 8.66483C63.6715 8.76707 63.6998 8.79751 63.6998 8.89011C63.6998 9.01742 63.6191 9.07486 63.4406 9.07486C63.3057 9.07486 63.1804 9.04982 63.0357 8.99434C63.0357 8.99434 62.9765 9.44436 62.9738 9.46587C63.0763 9.49253 63.1679 9.51688 63.4437 9.52628C63.9204 9.52628 64.1404 9.3104 64.1404 8.84392C64.1404 8.56321 64.0484 8.39859 63.822 8.27487C63.6327 8.17124 63.6108 8.14849 63.6108 8.053C63.6108 7.9427 63.686 7.88595 63.8319 7.88595C63.9205 7.88595 64.0416 7.89754 64.1565 7.91698L64.2207 7.44324C64.1039 7.42118 63.9266 7.40351 63.8233 7.40351C63.318 7.40351 63.1432 7.71728 63.1447 8.09472ZM72.3794 9.49079H71.9521L71.9733 9.30072C71.8494 9.45837 71.7224 9.52628 71.5569 9.52628C71.2285 9.52628 71.0116 9.18951 71.0116 8.67905C71.0116 7.99989 71.3481 7.42736 71.7465 7.42736C71.9216 7.42736 72.0543 7.51251 72.1776 7.70575L72.2779 6.98032H72.7234L72.3794 9.49079ZM71.7132 9.01902C71.9235 9.01902 72.0712 8.73547 72.0712 8.33095C72.0712 8.07161 71.9871 7.93087 71.8319 7.93087C71.6271 7.93087 71.4816 8.21536 71.4816 8.61679C71.4816 8.88388 71.5594 9.01902 71.7132 9.01902ZM70.3957 7.44923C70.3392 8.08115 70.2388 8.72124 70.1602 9.35361L70.1396 9.49079H70.5913C70.7529 8.24235 70.792 7.99854 71.0453 8.02909C71.0857 7.77359 71.1607 7.54976 71.2168 7.43682C71.0276 7.38994 70.9219 7.51714 70.7836 7.75875C70.7946 7.65433 70.8146 7.55288 70.8106 7.44923H70.3957ZM66.6777 7.44923C66.6211 8.08115 66.5206 8.72124 66.4421 9.35361L66.4216 9.49079H66.8735C67.0349 8.24235 67.0739 7.99854 67.327 8.02909C67.3676 7.77359 67.4427 7.54976 67.4985 7.43682C67.3096 7.38994 67.2038 7.51714 67.0657 7.75875C67.0765 7.65433 67.0964 7.55288 67.0926 7.44923H66.6777ZM72.5778 9.33097C72.5778 9.24235 72.638 9.17104 72.7121 9.17104C72.7862 9.17096 72.8464 9.24237 72.8465 9.33056V9.33097C72.8464 9.41921 72.7863 9.49074 72.7121 9.49079C72.638 9.49074 72.5779 9.41921 72.5778 9.33097ZM72.7121 9.45241C72.7685 9.45244 72.8142 9.39809 72.8142 9.33105V9.331C72.8143 9.26391 72.7686 9.2095 72.7122 9.20945H72.7121C72.6557 9.20948 72.61 9.26388 72.61 9.331C72.61 9.39806 72.6558 9.45241 72.7121 9.45241ZM72.694 9.40084H72.6664V9.26066H72.7164C72.7267 9.26066 72.7374 9.26088 72.7464 9.26766C72.756 9.27546 72.7616 9.28881 72.7616 9.30279C72.7616 9.31864 72.7537 9.33348 72.741 9.33911L72.7628 9.40076H72.7322L72.7141 9.34539H72.694V9.40076V9.40084ZM72.694 9.32143H72.7091C72.7148 9.32143 72.721 9.32193 72.726 9.31867C72.7305 9.31523 72.7329 9.30872 72.7329 9.30249C72.7327 9.2967 72.7302 9.29135 72.7262 9.28804C72.7215 9.28481 72.7137 9.28569 72.7085 9.28569H72.694L72.694 9.32143Z" fill="white"/>
<rect x="90.9243" y="0.58252" width="42.7901" height="14.7682" rx="5" fill="white"/>
<path d="M120.29 2.10107H104.348V13.8325H120.29V2.10107Z" fill="#0E4595"/>
<path d="M110.341 10.2832L111.023 5.69009H112.113L111.431 10.2832H110.341ZM115.371 5.7891C115.155 5.69605 114.816 5.59619 114.394 5.59619C113.316 5.59619 112.557 6.21913 112.55 7.11196C112.544 7.77198 113.092 8.14016 113.506 8.35986C113.931 8.58499 114.073 8.72856 114.071 8.92961C114.069 9.23747 113.732 9.37813 113.419 9.37813C112.982 9.37813 112.75 9.30851 112.392 9.13702L112.252 9.06405L112.099 10.0923C112.353 10.2205 112.824 10.3315 113.313 10.3373C114.46 10.3373 115.204 9.72149 115.213 8.76805C115.217 8.24555 114.926 7.84793 114.297 7.5201C113.916 7.30765 113.682 7.16584 113.685 6.9507C113.685 6.75979 113.882 6.55561 114.309 6.55561C114.666 6.54928 114.924 6.63855 115.126 6.73158L115.223 6.78461L115.371 5.7891ZM118.177 5.69002H117.335C117.074 5.69002 116.878 5.77183 116.764 6.07092L115.144 10.2802H116.289C116.289 10.2802 116.476 9.71417 116.519 9.58993C116.644 9.58993 117.756 9.5919 117.916 9.5919C117.948 9.75269 118.048 10.2802 118.048 10.2802H119.06L118.177 5.68988V5.69002ZM116.84 8.65596C116.931 8.39133 117.275 7.372 117.275 7.372C117.268 7.38425 117.364 7.10608 117.42 6.93362L117.493 7.32965C117.493 7.32965 117.702 8.42605 117.746 8.65596H116.84ZM109.415 5.69002L108.347 8.82232L108.234 8.18577C108.035 7.45201 107.415 6.65704 106.723 6.25904L107.699 10.2759L108.853 10.2744L110.57 5.68997H109.415" fill="white"/>
<path d="M107.351 5.69004H105.593L105.579 5.7856C106.947 6.16579 107.852 7.08458 108.228 8.18844L107.845 6.07771C107.779 5.78689 107.588 5.7001 107.351 5.68994" fill="#F2AE14"/>
<rect x="136.676" y="0.58252" width="40.2397" height="14.7682" rx="5" fill="white"/>
<path d="M166.056 1.27881H148.963V14.6541H166.056V1.27881Z" fill="white"/>
<path d="M160.887 7.7124V10.6015H162.202V8.88943H163.692C164.318 8.88408 164.851 8.39454 165.053 7.7124H160.887Z" fill="#37A72E"/>
<path d="M160.711 5.33154C160.788 6.51124 161.704 7.44483 162.822 7.44483C162.826 7.44483 165.107 7.44483 165.107 7.44483C165.125 7.33783 165.134 7.22548 165.134 7.11045C165.134 6.13138 164.487 5.33957 163.687 5.33154H160.711Z" fill="url(#paint0_linear_328_1043)"/>
<path d="M158.765 7.41541C158.78 7.38331 158.805 7.36458 158.835 7.36458C158.879 7.36458 158.912 7.40738 158.914 7.45821V10.5746H160.229V5.33154H158.914C158.748 5.33957 158.559 5.4867 158.489 5.67127L157.444 8.41053C157.442 8.42123 157.437 8.43193 157.433 8.44263C157.417 8.46938 157.391 8.4881 157.36 8.4881C157.312 8.4881 157.273 8.43995 157.273 8.3811V5.33154H155.958V10.5746H157.273C157.437 10.5639 157.621 10.4168 157.691 10.2349L158.765 7.42343C158.763 7.42076 158.765 7.41808 158.765 7.41541Z" fill="#37A72E"/>
<path d="M153.856 7.50659L153.087 10.5749H152.14L151.373 7.50392C151.367 7.45577 151.332 7.41832 151.288 7.41832C151.24 7.41832 151.203 7.46647 151.203 7.52264V10.5722H149.888V5.3291H151.016H151.352C151.593 5.3291 151.847 5.55916 151.917 5.84004L152.557 8.39471C152.59 8.52311 152.64 8.52044 152.673 8.39471L153.313 5.84004C153.383 5.55648 153.637 5.3291 153.878 5.3291H154.213H155.342V10.5722H154.027V7.52264C154.027 7.52264 154.027 7.52264 154.027 7.51997C154.027 7.46112 153.988 7.41564 153.942 7.41564C153.898 7.41832 153.863 7.45577 153.856 7.50659Z" fill="#37A72E"/>
<defs>
<linearGradient id="paint0_linear_328_1043" x1="160.712" y1="6.38819" x2="165.133" y2="6.38819" gradientUnits="userSpaceOnUse">
<stop stop-color="#00A0E5"/>
<stop offset="1" stop-color="#0077C3"/>
</linearGradient>
</defs>
</svg>
